<svg width="189" height="87" viewBox="0 0 189 87" fill="none" xmlns="http://www.w3.org/2000/svg">
<path d="M39.9181 64.3659C32.5862 64.3659 26.8835 69.317 26.8835 75.6829C26.8835 82.0487 32.5862 87 39.9181 87C47.25 87 52.9526 82.0487 52.9526 75.6829C52.9526 69.317 47.25 64.3659 39.9181 64.3659ZM117.31 0H110.793V13.7927H135.233L117.31 0ZM0.814581 77.8049H17.1077C17.1077 77.8049 17.9224 56.5854 41.5474 56.5854C59.0625 56.5854 61.9138 77.8049 61.9138 77.8049H102.647V0H0L0.814581 77.8049ZM154.785 64.3659C147.453 64.3659 141.75 69.317 141.75 75.6829C141.75 82.0487 147.453 87 154.785 87C162.117 87 167.819 82.0487 167.819 75.6829C167.819 69.317 161.709 64.3659 154.785 64.3659ZM139.306 17.6829H110.793V77.8049H135.233C135.233 77.8049 131.974 60.1219 155.599 60.1219C173.522 60.1219 173.114 77.8049 173.114 77.8049H188.186L189 51.2805L139.306 17.6829ZM135.233 63.6585H118.94V56.5854H135.233V63.6585ZM133.604 50.9268L117.31 42.439V22.6341H133.604L175.966 50.9268H133.604Z" fill="white" fill-opacity="0.4"/>
</svg>
