<svg width="45" height="45" viewBox="0 0 45 45" fill="none" xmlns="http://www.w3.org/2000/svg">
<circle cx="22.5" cy="22.5" r="21.5" fill="white" stroke="#F13C6E" stroke-width="2"/>
<path d="M35.8947 28.6121C35.8607 28.5483 35.8291 28.4953 35.7997 28.4528C35.3131 27.688 34.3833 26.7492 33.0109 25.6362L32.9819 25.6107L32.9674 25.5982L32.9527 25.5854H32.9379C32.3151 25.0671 31.9206 24.7186 31.7554 24.5402C31.4532 24.2003 31.3855 23.8563 31.5507 23.5077C31.6674 23.2444 32.1057 22.6882 32.8648 21.8384C33.264 21.3881 33.5802 21.0272 33.8137 20.7552C35.4978 18.801 36.228 17.5523 36.004 17.0085L35.917 16.8814C35.8585 16.8049 35.7077 16.7349 35.4646 16.6711C35.221 16.6074 34.9096 16.5968 34.5299 16.6393L30.3249 16.6646C30.2567 16.6436 30.1595 16.6455 30.0328 16.6711C29.9062 16.6966 29.8429 16.7094 29.8429 16.7094L29.7697 16.7413L29.7116 16.7797C29.6629 16.805 29.6094 16.8496 29.5509 16.9133C29.4928 16.9769 29.4441 17.0514 29.4053 17.1363C28.9474 18.1644 28.4269 19.1202 27.8428 20.0037C27.4826 20.5306 27.1518 20.9872 26.8497 21.3738C26.548 21.7602 26.2949 22.045 26.0907 22.2275C25.8861 22.4102 25.7015 22.5566 25.5357 22.6671C25.3702 22.7777 25.2438 22.8245 25.1563 22.8074C25.0686 22.7903 24.986 22.7733 24.9078 22.7564C24.7716 22.6798 24.6621 22.5758 24.5795 22.4441C24.4965 22.3124 24.4407 22.1467 24.4115 21.947C24.3824 21.7473 24.3652 21.5754 24.3603 21.4309C24.3558 21.2866 24.3579 21.0825 24.3678 20.8191C24.3779 20.5556 24.3824 20.3773 24.3824 20.2839C24.3824 19.961 24.3896 19.6105 24.4041 19.2325C24.4188 18.8544 24.4308 18.5548 24.4407 18.3341C24.4507 18.1132 24.4553 17.8795 24.4553 17.6331C24.4553 17.3867 24.4381 17.1935 24.4041 17.0532C24.3706 16.9132 24.3191 16.7772 24.2512 16.6454C24.1829 16.5137 24.083 16.4118 23.9519 16.3395C23.8205 16.2673 23.6572 16.21 23.4628 16.1674C22.9468 16.0655 22.2898 16.0104 21.4915 16.0018C19.681 15.9849 18.5177 16.0869 18.0018 16.3078C17.7974 16.4011 17.6124 16.5287 17.4471 16.69C17.2718 16.877 17.2473 16.979 17.3739 16.9958C17.958 17.0722 18.3715 17.2549 18.6149 17.5437L18.7026 17.6968C18.7708 17.8072 18.8389 18.0027 18.9071 18.283C18.9752 18.5633 19.0191 18.8734 19.0384 19.2131C19.087 19.8334 19.087 20.3644 19.0384 20.8062C18.9897 21.2481 18.9437 21.5921 18.8997 21.8385C18.8558 22.0849 18.7902 22.2845 18.7026 22.4374C18.6149 22.5904 18.5565 22.6838 18.5273 22.7177C18.4981 22.7517 18.4737 22.7731 18.4544 22.7814C18.3279 22.8238 18.1963 22.8453 18.0601 22.8453C17.9237 22.8453 17.7583 22.7858 17.5637 22.6668C17.3691 22.5478 17.1672 22.3843 16.9578 22.1761C16.7485 21.9679 16.5125 21.6769 16.2495 21.3031C15.9868 20.9293 15.7143 20.4876 15.432 19.9778L15.1984 19.6081C15.0524 19.3703 14.8529 19.024 14.5998 18.5696C14.3466 18.1149 14.1228 17.6752 13.9282 17.2504C13.8504 17.0719 13.7335 16.9361 13.5778 16.8426L13.5047 16.8043C13.4561 16.7704 13.3781 16.7343 13.2712 16.696C13.164 16.6576 13.0522 16.6301 12.9353 16.6132L8.93465 16.6386C8.52583 16.6386 8.24844 16.7194 8.10238 16.8808L8.04393 16.9572C8.01473 16.9998 8 17.0677 8 17.1612C8 17.2547 8.0292 17.3694 8.08765 17.5052C8.67168 18.7033 9.3068 19.8587 9.993 20.9717C10.6792 22.0847 11.2755 22.9812 11.7815 23.6605C12.2877 24.3403 12.8036 24.9818 13.3293 25.5849C13.8549 26.1881 14.2029 26.5747 14.3731 26.7446C14.5436 26.9147 14.6775 27.0419 14.7748 27.1269L15.1399 27.4327C15.3735 27.6366 15.7166 27.8809 16.1692 28.1655C16.6219 28.4502 17.1232 28.7305 17.6731 29.0069C18.2232 29.2828 18.8631 29.5079 19.5933 29.682C20.3233 29.8563 21.0338 29.9263 21.725 29.8925H23.4042C23.7447 29.8669 24.0027 29.7734 24.1781 29.6121L24.2362 29.5482C24.2752 29.4975 24.3118 29.4187 24.3456 29.3127C24.3797 29.2065 24.3967 29.0895 24.3967 28.9623C24.3867 28.597 24.4186 28.2678 24.4914 27.9747C24.5642 27.6817 24.6471 27.4608 24.7399 27.312C24.8326 27.1634 24.9373 27.038 25.0537 26.9363C25.1704 26.8344 25.2536 26.7727 25.3023 26.7514C25.3508 26.73 25.3895 26.7155 25.4187 26.7068C25.6524 26.6389 25.9273 26.7047 26.2439 26.9045C26.5604 27.1042 26.8571 27.3507 27.1347 27.6437C27.4122 27.937 27.7455 28.266 28.1348 28.6312C28.5243 28.9966 28.8649 29.2683 29.1568 29.4469L29.4487 29.5999C29.6437 29.7019 29.8968 29.7954 30.2083 29.8803C30.5193 29.9652 30.7918 29.9865 31.0257 29.944L34.7635 29.8931C35.1332 29.8931 35.4208 29.8397 35.6249 29.7337C35.8293 29.6275 35.9508 29.5105 35.99 29.3832C36.029 29.2558 36.0311 29.1113 35.9974 28.9497C35.9628 28.7885 35.9286 28.6758 35.8947 28.6121Z" fill="#F13C6E"/>
</svg>
