<svg width="45" height="45" viewBox="0 0 45 45" fill="none" xmlns="http://www.w3.org/2000/svg">
<circle cx="22.5" cy="22.5" r="21.5" fill="white" stroke="#F13C6E" stroke-width="2"/>
<path d="M28.4309 16H15.5691C13.0457 16 11 17.82 11 20.0652V25.7856C11 28.0307 13.0457 29.8508 15.5691 29.8508H28.4309C30.9543 29.8508 33 28.0307 33 25.7856V20.0652C33 17.82 30.9543 16 28.4309 16ZM25.3408 23.2037L19.325 25.7565C19.1647 25.8245 18.9795 25.7205 18.9795 25.5625V20.2974C18.9795 20.1372 19.1695 20.0333 19.3302 20.1058L25.346 22.8181C25.5249 22.8987 25.5218 23.1269 25.3408 23.2037Z" fill="#F13C6E"/>
</svg>
